{"title":"The.Door.2009.DvDRip.H264.Feel-Free","uid":6011700,"size":992562772,"categoryP":"video","categoryS":"movies","magnet":"?xt=urn:btih:fb55eda0b3314b0969b430323b624a93db3b1533&amp;dn=The.Door.2009.DvDRip.H264.Feel-Free&amp;tr=udp%3A%2F%2Ftracker.openbittorrent.com%3A80&amp;tr=udp%3A%2F%2Fopen.demonii.com%3A1337&amp;tr=udp%3A%2F%2Ftracker.coppersurfer.tk%3A6969&amp;tr=udp%3A%2F%2Fexodus.desync.com%3A6969","seeders":1,"leechers":0,"uploader":"hiest","files":10,"time":1291478527,"description":"Genre:Mystery | Thriller \nLanguage:English\nIMDb:http://www.imdb.com/title/tt1223934/\nSource:DVD\n\nGeneral\nComplete name :The.Door.2009.DvDRip.H264.Feel-Free\nFormat : MPEG-4\nFormat profile : Base Media / Version 2\nCodec ID : mp42\nFile size : 945 MiB\nDuration : 1h 39mn\nOverall bit rate : 1 326 Kbps\nVideo #1\nCodec ID : avc1\nCodec ID/Info : Advanced Video Coding\nDuration : 1h 39mn\nBit rate mode : Variable\nBit rate : 845 Kbps\nWidth : 720 pixels\nHeight : 304 pixels\nDisplay aspect ratio : 2.35:1\nFrame rate mode : Constant\nFrame rate : 23.976 fps\nResolution : 24 bits\nColorimetry : 4:2:0\nScan type : Progressive\nBits/(Pixel*Frame) : 0.161\nStream size : 602 MiB (64%)\nAudio #2\nID : 2\nFormat : AAC\nFormat/Info : Advanced Audio Codec\nFormat version : Version 4\nFormat profile : LC\nFormat settings, SBR : No\nCodec ID : 40\nDuration : 1h 39mn\nBit rate mode : Constant\nBit rate : 477 Kbps\nNominal bit rate : 480 Kbps\nChannel(s) : 6 channels\nChannel positions : Front: L C R, Rear: L R, LFE\nSampling rate : 48.0 KHz\nResolution : 16 bits\nStream size : 340 MiB (36%)\n\nPlot:\nA successful artist loses control of his life after his young daughter's death. A chance for a new start appears, but all is not what it seems.\n\n\n\n\n\n================================== &lt;a href=&quot;\nhttp://thepiratebay.se/user/hiest&quot; rel=&quot;nofollow&quot; target=&quot;_NEW&quot;&gt;\nhttp://thepiratebay.se/user/hiest&lt;/a&gt;\n==================================","torrent":{"xt":"urn:btih:fb55eda0b3314b0969b430323b624a93db3b1533","amp;dn":"The.Door.2009.DvDRip.H264.Feel-Free","amp;tr":["udp%3A%2F%2Ftracker.openbittorrent.com%3A80","udp%3A%2F%2Fopen.demonii.com%3A1337","udp%3A%2F%2Ftracker.coppersurfer.tk%3A6969","udp%3A%2F%2Fexodus.desync.com%3A6969"],"infoHash":"fb55eda0b3314b0969b430323b624a93db3b1533","infoHashBuffer":{"type":"Buffer","data":[251,85,237,160,179,49,75,9,105,180,48,50,59,98,74,147,219,59,21,51]},"announce":[],"urlList":[]}}